<?xml version="1.0" encoding="UTF-8" standalone="no"?><!DOCTYPE svg PUBLIC "-//W3C//DTD SVG 1.1//EN" "http://www.w3.org/Graphics/SVG/1.1/DTD/svg11.dtd"><svg width="100%" height="100%" viewBox="0 0 657 641" version="1.1" xmlns="http://www.w3.org/2000/svg" xmlns:xlink="http://www.w3.org/1999/xlink" xml:space="preserve" xmlns:serif="http://www.serif.com/" style="fill-rule:evenodd;clip-rule:evenodd;stroke-linejoin:round;stroke-miterlimit:2;"><g><g><path d="M655.528,328.74c-4.23,186.726 -147.38,311.769 -325.7,311.769c-177.147,-0 -323.795,-123.084 -329.828,-308.11c64.39,104.874 188.691,196.546 328.738,196.546c141.67,0 263.02,-93.324 326.79,-200.205Z" style="fill:#4bc2bd;"/></g><g><path d="M280.47,523.155l48.779,-96.669l48.785,96.676c-12.664,-12.762 -29.859,-20.612 -48.785,-20.612c-18.925,-0 -36.12,7.847 -48.779,20.605Z" style="fill:#4bc2bd;"/></g><g><path d="M287.292,162.197l41.405,-160.763l41.408,160.775c-10.749,-21.225 -25.344,-34.279 -41.408,-34.279c-16.065,-0 -30.66,13.049 -41.405,34.267Z" style="fill:#4bc2bd;"/></g><path d="M153.922,18.026c0.161,-0.071 0.322,-0.143 0.483,-0.215l0,0.1c-0.161,0.039 -0.322,0.077 -0.483,0.115Zm174.165,-18.026l0.224,0c149.931,0 328.321,33.824 328.321,151.135c0,117.311 -149.94,234.493 -330.92,234.493c-180.979,0 -324.899,-117.182 -324.899,-234.493c0,-71.969 66.829,-112.516 153.109,-133.109c-50.288,22.471 -100.947,60.877 -100.947,111.977c0,84.748 124.441,114.233 274.374,114.233c149.933,0 268.943,-29.485 268.943,-114.233c0,-69.315 -132.32,-115.668 -268.205,-130.001l0,-0.002Z" style="fill:#4bc2bd;"/></g></svg>