<?xml version="1.0" encoding="UTF-8" standalone="no"?>
<!DOCTYPE svg PUBLIC "-//W3C//DTD SVG 1.1//EN" "http://www.w3.org/Graphics/SVG/1.1/DTD/svg11.dtd">
<svg width="100%" height="100%" viewBox="0 0 1200 1800" version="1.1" xmlns="http://www.w3.org/2000/svg" xmlns:xlink="http://www.w3.org/1999/xlink" xml:space="preserve" xmlns:serif="http://www.serif.com/" style="fill-rule:evenodd;clip-rule:evenodd;stroke-linejoin:round;stroke-miterlimit:2;">
    <g transform="matrix(6.245e-17,-1,1,6.245e-17,-360.252,1274.5)">
        <g transform="matrix(1,0,0,1,-208.397,-69.8043)">
            <path d="M617.06,1329.47C430.334,1325.24 305.291,1182.09 305.291,1003.77C305.291,826.623 428.375,679.975 613.401,673.942C508.527,738.332 416.855,862.633 416.855,1002.68C416.855,1144.35 510.179,1265.7 617.06,1329.47Z" style="fill:rgb(75,194,189);"/>
        </g>
        <g transform="matrix(0.363988,0,0,0.479498,-41.2044,315.319)">
            <path d="M701.815,1187.26L967.398,1288.99L701.795,1390.73C736.859,1364.32 758.425,1328.46 758.425,1288.99C758.425,1249.52 736.867,1213.66 701.815,1187.26Z" style="fill:rgb(75,194,189);"/>
        </g>
        <g transform="matrix(0.605322,-1.42189e-19,-1.18455e-19,0.407002,150.382,408.213)">
            <path d="M701.815,1187.26L967.398,1288.99L701.795,1390.73C736.859,1364.32 758.425,1328.46 758.425,1288.99C758.425,1249.52 736.867,1213.66 701.815,1187.26Z" style="fill:rgb(75,194,189);"/>
        </g>
        <path d="M719.377,758.06C719.448,758.221 719.52,758.382 719.592,758.543L719.492,758.543C719.453,758.382 719.415,758.221 719.377,758.06ZM737.403,932.225C737.403,932.299 737.403,932.374 737.403,932.449C737.403,1082.38 703.579,1260.77 586.268,1260.77C468.957,1260.77 351.775,1110.83 351.775,929.85C351.775,748.871 468.957,604.951 586.268,604.951C658.237,604.951 698.784,671.78 719.377,758.06C696.906,707.772 658.5,657.113 607.4,657.113C522.652,657.113 493.167,781.554 493.167,931.487C493.167,1081.42 522.652,1200.43 607.4,1200.43C676.715,1200.43 723.068,1068.11 737.401,932.225L737.403,932.225Z" style="fill:rgb(75,194,189);"/>
    </g>
</svg>
